<svg xmlns="http://www.w3.org/2000/svg" width="112.417" height="105.364" viewBox="0 0 112.417 105.364">
  <path id="icon_Calendar" d="M103.642,110.364H10.775C5.377,110.364,1,105.4,1,99.273V16.091C1,9.966,5.377,5,10.775,5h92.867c5.4,0,9.775,4.966,9.775,11.091V99.273C113.417,105.4,109.04,110.364,103.642,110.364Zm4.888-94.273c0-3.061-2.19-5.545-4.888-5.545H10.775c-2.7,0-4.888,2.484-4.888,5.545V32.727H108.53Zm0,22.182H5.888v61c0,3.061,2.19,5.546,4.888,5.546h92.867c2.7,0,4.888-2.484,4.888-5.546ZM98.754,77.091H93.867a2.623,2.623,0,0,1-2.444-2.773V68.773A2.625,2.625,0,0,1,93.867,66h4.888a2.623,2.623,0,0,1,2.444,2.773v5.546A2.622,2.622,0,0,1,98.754,77.091Zm0-19.409H93.867a2.623,2.623,0,0,1-2.444-2.773V49.364a2.623,2.623,0,0,1,2.444-2.773h4.888a2.622,2.622,0,0,1,2.444,2.773v5.545A2.622,2.622,0,0,1,98.754,57.682ZM79.2,77.091H74.316a2.623,2.623,0,0,1-2.444-2.773V68.773A2.625,2.625,0,0,1,74.316,66H79.2a2.623,2.623,0,0,1,2.444,2.773v5.546A2.622,2.622,0,0,1,79.2,77.091Zm0-19.409H74.316a2.623,2.623,0,0,1-2.444-2.773V49.364a2.623,2.623,0,0,1,2.444-2.773H79.2a2.622,2.622,0,0,1,2.444,2.773v5.545A2.622,2.622,0,0,1,79.2,57.682ZM59.653,77.091H54.765a2.622,2.622,0,0,1-2.444-2.773V68.773A2.623,2.623,0,0,1,54.765,66h4.888A2.623,2.623,0,0,1,62.1,68.773v5.546A2.622,2.622,0,0,1,59.653,77.091Zm0-19.409H54.765a2.622,2.622,0,0,1-2.444-2.773V49.364a2.622,2.622,0,0,1,2.444-2.773h4.888A2.622,2.622,0,0,1,62.1,49.364v5.545A2.622,2.622,0,0,1,59.653,57.682ZM40.1,96.5H35.214a2.622,2.622,0,0,1-2.444-2.773V88.182a2.622,2.622,0,0,1,2.444-2.773H40.1a2.622,2.622,0,0,1,2.444,2.773v5.545A2.622,2.622,0,0,1,40.1,96.5Zm0-19.409H35.214a2.622,2.622,0,0,1-2.444-2.773V68.773A2.623,2.623,0,0,1,35.214,66H40.1a2.623,2.623,0,0,1,2.444,2.773v5.546A2.622,2.622,0,0,1,40.1,77.091Zm0-19.409H35.214a2.622,2.622,0,0,1-2.444-2.773V49.364a2.622,2.622,0,0,1,2.444-2.773H40.1a2.622,2.622,0,0,1,2.444,2.773v5.545A2.622,2.622,0,0,1,40.1,57.682ZM20.551,96.5H15.663a2.622,2.622,0,0,1-2.444-2.773V88.182a2.622,2.622,0,0,1,2.444-2.773h4.888a2.622,2.622,0,0,1,2.444,2.773v5.545A2.622,2.622,0,0,1,20.551,96.5Zm0-19.409H15.663a2.622,2.622,0,0,1-2.444-2.773V68.773A2.623,2.623,0,0,1,15.663,66h4.888a2.623,2.623,0,0,1,2.444,2.773v5.546A2.622,2.622,0,0,1,20.551,77.091ZM54.765,85.41h4.888A2.622,2.622,0,0,1,62.1,88.182v5.545A2.622,2.622,0,0,1,59.653,96.5H54.765a2.622,2.622,0,0,1-2.444-2.773V88.182A2.622,2.622,0,0,1,54.765,85.41Z" transform="translate(-1 -5)" fill="#fff" fill-rule="evenodd"/>
</svg>
