<svg xmlns="http://www.w3.org/2000/svg" xmlns:xlink="http://www.w3.org/1999/xlink" width="633.745" height="346.034" viewBox="0 0 633.745 346.034">
  <defs>
    <linearGradient id="linear-gradient" x1="0.468" y1="0.466" x2="-0.535" y2="0.461" gradientUnits="objectBoundingBox">
      <stop offset="0" stop-color="#fff"/>
      <stop offset="1" stop-color="#7843bb"/>
    </linearGradient>
  </defs>
  <g id="server" transform="translate(-778.727 -258.106)">
    <path id="Tracé_11" data-name="Tracé 11" d="M880,556.822h428.665v-151.2H880Z" transform="translate(103.807 47.317)" fill="url(#linear-gradient)"/>
    <path id="Tracé_10" data-name="Tracé 10" d="M926.472,435.209l138.754,83.638" transform="translate(-145 -106.247)" fill="none" stroke="#00c2ff" stroke-linecap="round" stroke-width="4" stroke-dasharray="14 12"/>
    <g id="pc1" transform="translate(859.661 258.106)">
      <path id="Face_Top" d="M34.754,34.754,172.92,0,139.464,139.464,0,172.92Z" transform="translate(122.273 0) rotate(45)" fill="#d396f6"/>
      <g id="Face_gauche">
        <path id="Tracé_3" data-name="Tracé 3" d="M771.106,341V488.8l121.9,75.962.052-149.19Z" transform="translate(-771.105 -218.727)" fill="#d396f6"/>
        <g id="Light_Left">
          <path id="Tracé_5" data-name="Tracé 5" d="M771.105,341v8.864l7.311,4.556,0-8.948Z" transform="translate(-753.97 -178.161)" fill="#c9f2ff"/>
          <path id="Tracé_5-2" data-name="Tracé 5" d="M771.105,341v8.864l7.311,4.556,0-8.948Z" transform="translate(-753.97 -160.829)" fill="#c9f2ff"/>
          <path id="Tracé_5-3" data-name="Tracé 5" d="M771.105,341v8.864l7.311,4.556,0-8.948Z" transform="translate(-753.97 -143.496)" fill="#c9f2ff"/>
          <path id="Tracé_5-4" data-name="Tracé 5" d="M771.105,341v8.864l7.311,4.556,0-8.948Z" transform="translate(-753.97 -126.164)" fill="#c9f2ff"/>
          <path id="Tracé_5-5" data-name="Tracé 5" d="M771.105,341v8.864l7.311,4.556,0-8.948Z" transform="translate(-753.97 -108.832)" fill="#c9f2ff"/>
          <path id="Tracé_5-6" data-name="Tracé 5" d="M771.105,341v8.864l7.311,4.556,0-8.948Z" transform="translate(-753.97 -91.5)" fill="#c9f2ff"/>
        </g>
        <g id="Light_Right">
          <path id="Tracé_6" data-name="Tracé 6" d="M771.105,341v8.864l25.207,14.556,0-8.948Z" transform="translate(-692.804 -141.169)" fill="#84ffea"/>
          <path id="Tracé_6-2" data-name="Tracé 6" d="M771.105,341v8.864l25.207,14.556,0-8.948Z" transform="translate(-692.804 -124.653)" fill="#84ffea"/>
          <path id="Tracé_6-3" data-name="Tracé 6" d="M771.105,341v8.864l25.207,14.556,0-8.948Z" transform="translate(-692.804 -108.138)" fill="#84ffea"/>
          <path id="Tracé_6-4" data-name="Tracé 6" d="M771.105,341v8.864l25.207,14.556,0-8.948Z" transform="translate(-692.804 -91.623)" fill="#84ffea"/>
          <path id="Tracé_6-5" data-name="Tracé 6" d="M771.105,341v8.864l25.207,14.556,0-8.948Z" transform="translate(-692.804 -74.075)" fill="#84ffea"/>
          <path id="Tracé_6-6" data-name="Tracé 6" d="M771.105,341v8.864l25.207,14.556,0-8.948Z" transform="translate(-692.804 -56.527)" fill="#84ffea"/>
        </g>
        <g id="Light_Center">
          <path id="Tracé_5-7" data-name="Tracé 5" d="M771.105,341v8.864l38.084,23.08,0-8.948Z" transform="translate(-740.286 -169.039)" fill="#0058cb"/>
          <path id="Tracé_5-8" data-name="Tracé 5" d="M771.105,341v8.864l38.084,23.08,0-8.948Z" transform="translate(-740.286 -152.619)" fill="#0058cb"/>
          <path id="Tracé_5-9" data-name="Tracé 5" d="M771.105,341v8.864l38.084,23.08,0-8.948Z" transform="translate(-740.286 -136.199)" fill="#0058cb"/>
          <path id="Tracé_5-10" data-name="Tracé 5" d="M771.105,341v8.864l38.084,23.08,0-8.948Z" transform="translate(-740.286 -118.866)" fill="#0058cb"/>
          <path id="Tracé_5-11" data-name="Tracé 5" d="M771.105,341v8.864l38.084,23.08,0-8.948Z" transform="translate(-740.286 -101.534)" fill="#0058cb"/>
          <path id="Tracé_5-12" data-name="Tracé 5" d="M771.105,341v8.864l38.084,23.08,0-8.948Z" transform="translate(-740.286 -84.202)" fill="#0058cb"/>
        </g>
      </g>
      <g id="Face_droite">
        <path id="Tracé_4" data-name="Tracé 4" d="M893.7,341V488.8L771.158,564.761l-.053-149.19Z" transform="translate(-649.149 -218.727)" fill="#7843bb"/>
        <path id="Tracé_8" data-name="Tracé 8" d="M778.42,341v8.864l-7.311,4.556,0-8.948Z" transform="translate(-550.412 -184.898)" fill="#c9f2ff"/>
        <path id="Tracé_7" data-name="Tracé 7" d="M809.193,341v8.864l-38.084,23.08,0-8.948Z" transform="translate(-596.65 -175.776)" fill="#30ffc7"/>
        <ellipse id="Ellipse_1" data-name="Ellipse 1" cx="23.58" cy="34.809" rx="23.58" ry="34.809" transform="translate(173.903 196.623) rotate(17)" fill="#002a4e"/>
      </g>
    </g>
    <path id="Tracé_9" data-name="Tracé 9" d="M926.472,435.209l138.754,83.638" transform="translate(107.643 50.953)" fill="none" stroke="#00c2ff" stroke-linecap="round" stroke-width="4" stroke-dasharray="14 12"/>
  </g>
</svg>
